<svg xmlns="http://www.w3.org/2000/svg" width="304" height="281" fill="none" viewBox="0 0 304 281"><path fill="#08090A" stroke="#D0D6E0" stroke-width="0.5" d="M148.534 1.068a7.75 7.75 0 0 1 6.932 0l50.211 25.106a3.75 3.75 0 0 1 2.073 3.354v125.056c0 1.42-.803 2.718-2.073 3.354l-50.211 25.105a7.75 7.75 0 0 1-6.932 0l-50.21-25.105a3.75 3.75 0 0 1-2.074-3.354V29.528a3.75 3.75 0 0 1 2.073-3.354z"></path><path stroke="#2E2E32" stroke-linecap="round" stroke-width="0.5" d="m102 30.056 46.422 23.21a8 8 0 0 0 7.156 0L202 30.057"></path><path fill="#08090A" filter="url(#filter0_d_3357_5865)" d="M84.534 139.068a7.76 7.76 0 0 1 6.932 0l50.211 25.106a3.75 3.75 0 0 1 2.073 3.353v19.057c0 1.42-.803 2.718-2.073 3.354l-50.211 25.105a7.75 7.75 0 0 1-6.932 0l-50.21-25.105a3.75 3.75 0 0 1-2.074-3.354v-19.057a3.75 3.75 0 0 1 2.073-3.353z"></path><g stroke-width="0.5"><path fill="#08090A" stroke="#3E3E44" d="M84.534 139.068a7.76 7.76 0 0 1 6.932 0l50.211 25.106a3.75 3.75 0 0 1 2.073 3.353v19.057c0 1.42-.803 2.718-2.073 3.354l-50.211 25.105a7.75 7.75 0 0 1-6.932 0l-50.21-25.105a3.75 3.75 0 0 1-2.074-3.354v-19.057a3.75 3.75 0 0 1 2.073-3.353z"></path><path stroke="#2E2E32" stroke-linecap="round" d="m38 168.056 46.422 23.211a8 8 0 0 0 7.156 0L138 168.056"></path></g><path fill="#08090A" filter="url(#filter1_d_3357_5865)" d="M84.534 53.069a7.75 7.75 0 0 1 6.932 0l50.211 25.105a3.75 3.75 0 0 1 2.073 3.353v73.057c0 1.42-.803 2.718-2.073 3.354l-50.211 25.105a7.75 7.75 0 0 1-6.932 0l-50.21-25.105a3.75 3.75 0 0 1-2.074-3.354V81.528a3.75 3.75 0 0 1 2.073-3.354z"></path><g name="outer-left"><path fill="#08090A" stroke="#D0D6E0" stroke-width="0.5" d="M84.534 53.069a7.75 7.75 0 0 1 6.932 0l50.211 25.105a3.75 3.75 0 0 1 2.073 3.353v73.057c0 1.42-.803 2.718-2.073 3.354l-50.211 25.105a7.75 7.75 0 0 1-6.932 0l-50.21-25.105a3.75 3.75 0 0 1-2.074-3.354V81.528a3.75 3.75 0 0 1 2.073-3.354z"></path><path stroke="#2E2E32" stroke-linecap="round" stroke-width="0.5" d="m38 82.056 46.422 23.211a8 8 0 0 0 7.156 0L138 82.056"></path></g><path fill="#08090A" filter="url(#filter2_d_3357_5865)" d="M212.534 97.069a7.75 7.75 0 0 1 6.932 0l50.211 25.105a3.75 3.75 0 0 1 2.073 3.353v61.057c0 1.42-.803 2.718-2.073 3.354l-50.211 25.105a7.75 7.75 0 0 1-6.932 0l-50.211-25.105a3.75 3.75 0 0 1-2.073-3.354v-61.057a3.75 3.75 0 0 1 2.073-3.353z"></path><g stroke-width="0.5"><path fill="#08090A" stroke="#D0D6E0" d="M212.534 97.069a7.75 7.75 0 0 1 6.932 0l50.211 25.105a3.75 3.75 0 0 1 2.073 3.353v61.057c0 1.42-.803 2.718-2.073 3.354l-50.211 25.105a7.75 7.75 0 0 1-6.932 0l-50.211-25.105a3.75 3.75 0 0 1-2.073-3.354v-61.057a3.75 3.75 0 0 1 2.073-3.353z"></path><path stroke="#2E2E32" stroke-linecap="round" d="m166 126.056 46.422 23.211a8 8 0 0 0 7.156 0L266 126.056"></path></g><path fill="#08090A" filter="url(#filter3_d_3357_5865)" d="M212.534 64.069a7.75 7.75 0 0 1 6.932 0l50.211 25.105a3.75 3.75 0 0 1 2.073 3.353v19.057c0 1.42-.803 2.718-2.073 3.354l-50.211 25.105a7.75 7.75 0 0 1-6.932 0l-50.211-25.105a3.75 3.75 0 0 1-2.073-3.354V92.528a3.75 3.75 0 0 1 2.073-3.354z"></path><g stroke-width="0.5" name="outer-right"><path fill="#08090A" stroke="#3E3E44" d="M212.534 64.069a7.75 7.75 0 0 1 6.932 0l50.211 25.105a3.75 3.75 0 0 1 2.073 3.353v19.057c0 1.42-.803 2.718-2.073 3.354l-50.211 25.105a7.75 7.75 0 0 1-6.932 0l-50.211-25.105a3.75 3.75 0 0 1-2.073-3.354V92.528a3.75 3.75 0 0 1 2.073-3.354z"></path><path stroke="#2E2E32" stroke-linecap="round" d="m166 93.056 46.422 23.211a8 8 0 0 0 7.156 0L266 93.056"></path></g><path fill="#08090A" filter="url(#filter4_d_3357_5865)" d="M148.534 145.068a7.76 7.76 0 0 1 6.932 0l50.211 25.106a3.75 3.75 0 0 1 2.073 3.353v45.057c0 1.42-.803 2.718-2.073 3.354l-50.211 25.105a7.75 7.75 0 0 1-6.932 0l-50.21-25.105a3.75 3.75 0 0 1-2.074-3.354v-45.057a3.75 3.75 0 0 1 2.073-3.353z"></path><g><path fill="#08090A" stroke="#D0D6E0" stroke-width="0.5" d="M148.534 145.068a7.76 7.76 0 0 1 6.932 0l50.211 25.106a3.75 3.75 0 0 1 2.073 3.353v45.057c0 1.42-.803 2.718-2.073 3.354l-50.211 25.105a7.75 7.75 0 0 1-6.932 0l-50.21-25.105a3.75 3.75 0 0 1-2.074-3.354v-45.057a3.75 3.75 0 0 1 2.073-3.353z"></path><path stroke="#2E2E32" stroke-linecap="round" stroke-width="0.5" d="m102 174.056 46.422 23.211a8 8 0 0 0 7.156 0L202 174.056"></path></g><defs><filter id="filter0_d_3357_5865" width="176" height="144" x="0" y="105.056" color-interpolation-filters="sRGB" filterUnits="userSpaceOnUse"><feFlood flood-opacity="0" result="BackgroundImageFix"></feFlood><feColorMatrix in="SourceAlpha" result="hardAlpha" values="0 0 0 0 0 0 0 0 0 0 0 0 0 0 0 0 0 0 127 0"></feColorMatrix><feOffset></feOffset><feGaussianBlur stdDeviation="16"></feGaussianBlur><feComposite in2="hardAlpha" operator="out"></feComposite><feColorMatrix values="0 0 0 0 0.0313726 0 0 0 0 0.0352941 0 0 0 0 0.0392157 0 0 0 1 0"></feColorMatrix><feBlend in2="BackgroundImageFix" result="effect1_dropShadow_3357_5865"></feBlend></filter><filter id="filter1_d_3357_5865" width="176" height="198" x="0" y="19.056" color-interpolation-filters="sRGB" filterUnits="userSpaceOnUse"><feFlood flood-opacity="0" result="BackgroundImageFix"></feFlood><feColorMatrix in="SourceAlpha" result="hardAlpha" values="0 0 0 0 0 0 0 0 0 0 0 0 0 0 0 0 0 0 127 0"></feColorMatrix><feOffset></feOffset><feGaussianBlur stdDeviation="16"></feGaussianBlur><feComposite in2="hardAlpha" operator="out"></feComposite><feColorMatrix values="0 0 0 0 0.0313726 0 0 0 0 0.0352941 0 0 0 0 0.0392157 0 0 0 1 0"></feColorMatrix><feBlend in2="BackgroundImageFix" result="effect1_dropShadow_3357_5865"></feBlend></filter><filter id="filter2_d_3357_5865" width="176" height="210" x="128" y="39.056" color-interpolation-filters="sRGB" filterUnits="userSpaceOnUse"><feFlood flood-opacity="0" result="BackgroundImageFix"></feFlood><feColorMatrix in="SourceAlpha" result="hardAlpha" values="0 0 0 0 0 0 0 0 0 0 0 0 0 0 0 0 0 0 127 0"></feColorMatrix><feOffset></feOffset><feGaussianBlur stdDeviation="16"></feGaussianBlur><feComposite in2="hardAlpha" operator="out"></feComposite><feColorMatrix values="0 0 0 0 0.0313726 0 0 0 0 0.0352941 0 0 0 0 0.0392157 0 0 0 1 0"></feColorMatrix><feBlend in2="BackgroundImageFix" result="effect1_dropShadow_3357_5865"></feBlend></filter><filter id="filter3_d_3357_5865" width="176" height="144" x="128" y="30.056" color-interpolation-filters="sRGB" filterUnits="userSpaceOnUse"><feFlood flood-opacity="0" result="BackgroundImageFix"></feFlood><feColorMatrix in="SourceAlpha" result="hardAlpha" values="0 0 0 0 0 0 0 0 0 0 0 0 0 0 0 0 0 0 127 0"></feColorMatrix><feOffset></feOffset><feGaussianBlur stdDeviation="16"></feGaussianBlur><feComposite in2="hardAlpha" operator="out"></feComposite><feColorMatrix values="0 0 0 0 0.0313726 0 0 0 0 0.0352941 0 0 0 0 0.0392157 0 0 0 1 0"></feColorMatrix><feBlend in2="BackgroundImageFix" result="effect1_dropShadow_3357_5865"></feBlend></filter><filter id="filter4_d_3357_5865" width="176" height="170" x="64" y="111.056" color-interpolation-filters="sRGB" filterUnits="userSpaceOnUse"><feFlood flood-opacity="0" result="BackgroundImageFix"></feFlood><feColorMatrix in="SourceAlpha" result="hardAlpha" values="0 0 0 0 0 0 0 0 0 0 0 0 0 0 0 0 0 0 127 0"></feColorMatrix><feOffset></feOffset><feGaussianBlur stdDeviation="16"></feGaussianBlur><feComposite in2="hardAlpha" operator="out"></feComposite><feColorMatrix values="0 0 0 0 0.0313726 0 0 0 0 0.0352941 0 0 0 0 0.0392157 0 0 0 1 0"></feColorMatrix><feBlend in2="BackgroundImageFix" result="effect1_dropShadow_3357_5865"></feBlend></filter></defs></svg>